# xmcd CD database file
#
# Track frame offsets:
#	150
#	18900
#	37777
#	56545
#
# Disc length: 1004 seconds
#
# Revision: 0
# Processed by: cddbd v1.5PL3 Copyright (c) Steve Scherf et al.
# Submitted via: CDex 1.51
#
DISCID=2203ea04
DTITLE=鈴木紗理奈 - シャレになんない
DYEAR=1997
DGENRE=JPop
TTITLE0=シャレになんない
TTITLE1=ヨッシャ！
TTITLE2=シャレになんない (Original Karaoke)
TTITLE3=ヨッシャ！ (Original Karaoke)
EXTD=YEAR: 1997
EXTT0=
EXTT1=
EXTT2=
EXTT3=
PLAYORDER=
